<?xml version="1.0"?>
<svg xmlns="http://www.w3.org/2000/svg" viewBox="0 0 24 24" enable-background="new 0 0 24 24">
    <path d="M 14.40625 2 L 7.59375 4.59375 C 7.29375 4.69375 6.9875 5.0125 6.6875 5.3125 L 4.40625 8.40625 C 4.00625 9.00625 3.8875 9.8 4.1875 10.5 C 4.6875 11.6 6.09375 14.1875 6.09375 14.1875 C 6.09375 14.1875 5.4125 12.9125 8.3125 11.3125 L 7.8125 10.1875 L 9.6875 8.5 L 13 8.5 L 11 11.5 L 8.1875 13 C 7.0875 13.5 6.8125 14.69375 7.3125 15.59375 C 7.7125 16.39375 8.60625 16.7125 9.40625 16.3125 L 16.1875 12.8125 C 16.5875 12.6125 16.89375 12.3 17.09375 12 C 17.79375 10.7 19.4 7.60625 20.5 4.90625 L 14.40625 2 z M 5.8125 15.59375 C 5.3125 16.29375 5 17.1 5 18 C 5 20.2 6.8 22 9 22 C 11.2 22 13 20.2 13 18 C 13 17.3 12.8 16.6875 12.5 16.1875 L 9.40625 17.6875 C 8.50625 18.0875 7.50625 17.89375 6.90625 17.09375 L 5.8125 15.59375 z"/>
</svg>
